<mxfile host="app.diagrams.net" modified="2024-04-22T12:49:41.976Z" agent="Mozilla/5.0 (Windows NT 10.0; Win64; x64; rv:124.0) Gecko/20100101 Firefox/124.0" version="24.2.7" etag="S_Fu7o0IHACYGhJ0FK-Q" type="github">
  <diagram name="Page-1" id="jjlCfXiH39gXJ_QYcnrA">
    <mxGraphModel>
      <root>
        <mxCell id="0" />
        <mxCell id="1" parent="0" />
      </root>
    </mxGraphModel>
  </diagram>
</mxfile>
